<svg width="800" height="800" viewBox="0 0 800 800" fill="none" xmlns="http://www.w3.org/2000/svg">
<g clip-path="url(#clip0_2162_249)">
<path d="M692.348 285.924C687.869 279.975 683.271 274.193 678.831 268.602C675.907 264.921 672.988 261.249 670.029 257.439C667.023 253.589 663.969 249.447 661.028 245.446L658.822 242.457C653.52 235.271 645.656 230.971 637.342 229.989C630.877 229.226 624.14 230.468 618.124 233.93C607.729 239.901 597.564 242.347 587.906 241.206C577.541 239.983 567.394 234.385 560.731 226.238C550.174 213.304 543.695 196.874 567.563 164.541C575.938 153.198 575.673 137.644 566.921 126.587L535.153 86.5047C524.032 72.4951 510.857 64.5051 495.979 62.7488C481.065 60.9884 466.372 65.7166 452.317 76.8017C432.704 92.2527 413.084 107.728 393.512 123.209C386.867 128.461 382.643 136.178 381.807 144.601C380.964 153.024 383.575 161.43 389.043 167.895C389.182 168.059 389.324 168.226 389.469 168.397C389.591 168.609 389.701 168.934 389.656 169.383C389.575 170.067 389.179 170.375 389.014 170.503C388.861 170.616 388.476 170.924 387.795 170.844C387.363 170.793 387.075 170.617 386.902 170.471C386.795 170.316 386.687 170.167 386.575 170.011C381.582 163.135 373.995 158.588 365.579 157.425C365.373 157.398 365.167 157.371 364.961 157.347C356.74 156.376 348.461 158.707 341.95 163.843C237.996 245.823 134.048 327.812 30.0379 409.869L29.4937 410.301C28.373 411.177 27.2522 412.079 25.9537 413.211C3.35197 433.211 -0.013482 464.884 17.9505 488.517C25.7787 498.81 33.9638 508.984 41.8844 518.826C45.5846 523.412 49.3174 528.052 53.0686 532.773C58.3798 539.459 65.9274 543.418 73.868 544.355C80.786 545.172 87.9952 543.687 94.2762 539.702C103.71 533.707 112.976 531.348 122.609 532.485L123.139 532.553C133.761 533.91 142.081 538.317 149.255 546.334C155.758 553.648 159.277 561.892 160.001 571.458C160.942 584.375 156.395 595.462 145.693 606.352C134.681 617.554 133.701 635.185 143.403 647.547C146.513 651.512 149.588 655.445 152.646 659.359C161.017 670.076 169.68 681.16 178.389 691.9C183.402 698.188 190.009 703.435 197.648 707.163C203.293 709.886 209.161 711.621 215.092 712.321C230.113 714.094 244.88 709.302 258.901 698.157C362.525 616.322 466.143 534.59 569.812 452.824C583.337 442.147 585.675 422.528 575.027 408.973C574.463 408.251 574.586 407.204 575.303 406.634C575.456 406.521 575.84 406.215 576.503 406.293C577.173 406.373 577.48 406.752 577.605 406.894C582.93 413.345 590.313 417.12 598.036 418.029C605.881 418.955 614.094 416.92 620.82 411.714L632.143 402.96C649.519 389.549 667.478 375.684 684.873 361.593C707.725 343.063 710.926 310.515 692.348 285.924Z" fill="#F2F5F7"/>
<path d="M666.668 310.939C659.526 301.462 651.955 292.269 644.69 282.898C640.619 277.697 636.736 272.344 632.965 267.231C591.522 291.049 554.162 274.686 535.806 252.203C511.975 223.007 513.696 190.125 541.706 152.189C531.218 138.934 520.556 125.525 509.956 112.145C498.289 97.4526 485.643 95.9598 470.939 107.554C451.345 122.996 431.731 138.458 412.178 153.927C412.484 154.289 412.814 154.629 413.112 155.01C424.375 169.281 421.934 189.983 407.655 201.24C393.392 212.501 372.692 210.058 361.438 195.784C361.135 195.398 360.877 194.985 360.592 194.589C256.636 276.569 152.688 358.555 48.7673 440.542C47.8294 441.287 46.8677 442.02 45.9453 442.823C35.6452 451.935 33.8037 464.891 42.109 475.817C53.205 490.418 64.8876 504.558 76.8067 519.551C92.0415 509.878 108.594 505.478 126.381 507.781C144.399 510.084 159.687 518.159 171.887 531.791C182.943 544.227 189.189 558.835 190.447 575.4C192.148 598.718 183.296 618.154 167.265 634.473C179.066 649.505 190.394 664.194 202.042 678.556C204.236 681.334 207.348 683.7 210.499 685.239C221.128 690.362 230.167 686.742 238.819 679.862C342.454 598.029 446.067 516.284 549.748 434.515C538.522 420.236 540.972 399.568 555.237 388.319C569.319 377.217 589.621 379.463 600.981 393.22C622.483 376.587 643.729 360.356 664.464 343.564C674.55 335.363 674.928 321.866 666.668 310.939ZM473.796 285.089C459.522 296.349 438.834 293.904 427.571 279.633C416.308 265.358 418.751 244.662 433.028 233.402C447.302 222.142 467.999 224.585 479.253 238.859C490.502 253.132 488.059 273.828 473.796 285.089ZM537.385 365.7C523.116 376.963 502.414 374.517 491.16 360.243C479.908 345.973 482.351 325.277 496.617 314.013C510.894 302.753 531.59 305.196 542.842 319.47C554.099 333.743 551.661 354.443 537.385 365.7Z" fill="#02C7BE"/>
<path d="M761.522 684.33C761.712 675.924 761.679 667.582 761.653 659.521C761.635 654.213 761.615 648.917 761.657 643.47C761.684 637.954 761.874 632.147 762.064 626.543L762.198 622.352C762.523 612.273 758.559 602.961 751.875 596.277C746.677 591.08 739.836 587.469 732.082 586.331C718.691 584.356 707.97 579.415 700.205 571.65C691.872 563.317 686.792 551.259 686.582 539.377C686.268 520.528 692.014 501.432 735.784 489.46C751.141 485.261 761.783 471.287 761.757 455.364L761.624 397.615C761.562 377.419 755.96 357.961 743.999 345.999C733.5 331.5 717.999 331.499 717.999 331.499C524.999 331.499 294.942 331.036 87.7048 331.048L86.9203 331.05C85.3139 331.044 83.6897 331.059 81.7474 331.154C47.7245 333.079 22.5913 358.804 21.9903 392.316C21.7318 406.916 21.8732 421.659 22.0124 435.923C22.0853 442.576 22.1494 449.3 22.1737 456.109C22.2068 465.75 26.1291 474.538 32.5129 480.921C38.0748 486.483 45.5038 490.209 53.8587 491.068C66.4143 492.35 76.2784 496.739 84.0234 504.484L84.4455 504.914C92.9131 513.546 97.2066 523.27 97.9601 535.395C98.6097 546.426 95.9647 556.195 89.9168 565.182C81.7187 577.291 69.9343 583.94 52.8312 586.11C35.2353 588.34 22.0367 603.284 21.9925 621.028C21.977 626.718 21.9527 632.355 21.9262 637.963C21.8533 653.318 21.7826 669.202 21.9925 684.813C22.0389 693.893 24.2265 703.165 28.3918 711.812C31.492 718.173 35.4806 723.815 40.2491 728.583C52.3252 740.659 68.7676 746.738 88.9909 746.663C238.082 746.581 387.096 746.586 536.178 746.597C555.635 746.59 571.428 730.833 571.467 711.37C571.472 710.336 572.314 709.494 573.348 709.489C573.562 709.496 574.117 709.494 574.649 710.026C575.189 710.565 575.195 711.116 575.206 711.33C575.416 720.772 579.321 729.282 585.532 735.489C591.839 741.795 600.543 745.735 610.146 745.823L626.306 745.98C651.088 746.243 676.705 746.511 701.98 746.184C735.196 745.737 760.795 719.121 761.522 684.33Z" fill="#F2F5F7"/>
<path d="M738.155 671.11C738.509 657.083 738.258 643.007 738.421 628.988C738.475 621.179 738.815 613.367 739.082 605.859C683.2 597.8 660.637 555.327 660.171 521.019C659.57 476.471 685.338 447.128 739.162 432.253C739.196 412.27 739.182 392.016 739.204 371.836C739.203 349.654 728.592 339.043 706.454 339.109C676.959 339.189 647.432 339.273 617.955 339.409C617.971 339.969 618.027 340.526 618.023 341.098C617.96 362.592 600.48 380.077 578.983 380.138C557.498 380.216 540.129 362.847 540.202 341.357C540.206 340.776 540.27 340.204 540.297 339.628C383.775 340.103 227.255 340.59 70.76 341.097C69.344 341.107 67.9142 341.088 66.4702 341.162C50.2343 342.13 39.0043 352.843 38.6611 369.068C38.2011 390.746 38.6225 412.424 38.6361 435.068C59.8528 437.178 78.4133 445.154 93.189 460.269C108.179 475.552 116.398 494.215 117.672 515.798C118.766 535.433 113.81 553.581 102.796 569.914C87.228 592.853 64.7436 604.484 37.903 607.979C37.7778 630.573 37.4674 652.503 37.694 674.362C37.683 678.548 38.8255 683.019 40.6114 686.75C46.6866 699.268 57.7173 702.491 70.7853 702.398C226.903 701.825 382.935 701.319 539.048 700.838C539.151 679.364 556.615 661.919 578.093 661.853C599.294 661.793 616.44 678.688 616.845 699.774C648.981 699.977 680.585 700.367 712.129 699.862C727.497 699.586 737.77 687.302 738.155 671.11ZM578.579 506.4C557.084 506.468 539.727 489.106 539.791 467.612C539.857 446.115 557.334 428.637 578.831 428.571C600.325 428.503 617.692 445.869 617.619 467.359C617.542 488.844 600.064 506.322 578.579 506.4ZM578.192 627.786C556.7 627.862 539.331 610.488 539.404 588.998C539.477 567.513 556.955 550.035 578.445 549.958C599.941 549.891 617.308 567.258 617.233 588.746C617.162 610.238 599.687 627.722 578.192 627.786Z" fill="#14141B"/>
<path d="M209.578 463.06L207.646 613.45" stroke="#F2F5F7" stroke-width="10" stroke-linecap="round"/>
<path d="M236.736 458.995L232.329 614.768" stroke="#F2F5F7" stroke-width="4" stroke-linecap="round"/>
<path d="M356.936 454.407L352.587 612.577" stroke="#F2F5F7" stroke-width="4" stroke-linecap="round"/>
<path d="M300.463 460.144L296.549 607.732" stroke="#F2F5F7" stroke-width="15" stroke-linecap="round"/>
</g>
<defs>
<clipPath id="clip0_2162_249">
<rect width="800" height="800" fill="white"/>
</clipPath>
</defs>
</svg>
